<?xml version="1.0" encoding="UTF-8"?>
<svg id="Layer_1" data-name="Layer 1" xmlns="http://www.w3.org/2000/svg" viewBox="0 0 200 39">
  <defs>
    <style>
      .cls-1 {
        fill: #8dbd61;
      }

      .cls-2 {
        fill: #2f3bad;
      }
    </style>
  </defs>
  <g>
    <polygon class="cls-2" points="34.47 13.06 29.45 28.31 32.44 28.31 33.72 24.43 38.33 24.43 37.38 21.55 34.66 21.55 36.53 15.85 36.85 15.85 40.94 28.31 43.95 28.31 38.94 13.06 34.47 13.06"/>
    <path class="cls-2" d="M50.66,21.19l-2.16-.3c-1.05-.16-1.35-.65-1.35-1.32,0-.83,.57-1.41,1.9-1.41,1.5,0,2.14,.74,2.24,1.71h2.65c-.18-2.56-2.04-3.81-4.91-3.81s-4.71,1.02-4.69,3.56c.02,2.13,1.09,2.98,3.07,3.33l2.2,.39c1.35,.23,1.7,.72,1.7,1.5,0,.95-.67,1.43-2,1.43-1.8,0-2.37-.95-2.47-2.1h-2.65c.08,2.24,1.33,4.14,5.08,4.14,3.5,0,4.79-1.39,4.83-3.6,.06-2.26-1.07-3.17-3.44-3.51Z"/>
    <path class="cls-2" d="M61.43,21.19l-2.16-.3c-1.05-.16-1.35-.65-1.35-1.32,0-.83,.57-1.41,1.9-1.41,1.5,0,2.14,.74,2.24,1.71h2.65c-.18-2.56-2.04-3.81-4.91-3.81s-4.71,1.02-4.69,3.56c.02,2.13,1.09,2.98,3.07,3.33l2.2,.39c1.35,.23,1.7,.72,1.7,1.5,0,.95-.67,1.43-2,1.43-1.8,0-2.37-.95-2.47-2.1h-2.65c.08,2.24,1.33,4.14,5.08,4.14,3.5,0,4.79-1.39,4.83-3.6,.06-2.26-1.07-3.17-3.44-3.51Z"/>
    <path class="cls-2" d="M66.24,14.65c0,.53,.22,.95,.65,1.09l1.31,.44v.3h-1.82v11.83h2.93V12.9h-3.07v1.76Z"/>
    <path class="cls-2" d="M79.16,17.63h-.28c-.73-1.02-1.86-1.57-3.46-1.57-3.36,0-4.85,2.56-4.85,6.03s1.44,6.03,4.85,6.03c1.58,0,2.73-.55,3.44-1.57h.3v1.96c0,1.78-.87,2.61-2.73,2.61s-2.65-1.13-2.75-2.24h-2.85c.08,2.47,1.86,4.48,5.46,4.48,4.19,0,5.82-1.83,5.82-5.34v-11.67h-2.95v1.27Zm-2.75,8.09c-2.06,0-2.89-1.2-2.89-3.58s.89-3.58,2.89-3.58,2.75,1.2,2.75,3.54-.85,3.63-2.75,3.63Z"/>
    <path class="cls-2" d="M90.24,16.29c-1.6,0-2.73,.74-3.44,1.94h-.28v-1.64h-2.91v11.72h2.93v-5.94c0-2.36,.99-3.47,2.57-3.47,1.44,0,2.24,.95,2.24,2.77v6.63h2.91v-7.19c0-3.1-1.4-4.83-4.02-4.83Z"/>
    <path class="cls-2" d="M109.48,16.29c-1.66,0-2.79,.81-3.46,2.13h-.28c-.63-1.39-1.98-2.13-3.64-2.13-1.5,0-2.59,.67-3.28,1.8h-.24v-1.5h-2.95v11.72h2.95v-6.12c0-2.22,.89-3.28,2.43-3.28,1.4,0,2.26,.83,2.26,2.5v6.91h2.91v-7.14c.14-1.5,1.07-2.26,2.35-2.26,1.37,0,2.31,.88,2.31,2.54v6.86h2.95v-7.19c0-3.1-1.64-4.83-4.31-4.83Z"/>
    <path class="cls-2" d="M126.05,22.07c0-3.28-1.52-6.01-5.42-6.01s-5.6,2.7-5.6,6.12,1.56,6.12,5.6,6.12c3.62,0,5.05-1.89,5.38-3.91h-2.83c-.3,.99-1.07,1.71-2.47,1.71-1.66,0-2.67-.9-2.83-3.17h8.11c.04-.23,.06-.53,.06-.88Zm-8.13-1.04c.22-1.83,1.17-2.8,2.75-2.8s2.47,1.04,2.57,2.8h-5.32Z"/>
    <path class="cls-2" d="M134.05,16.29c-1.6,0-2.73,.74-3.44,1.94h-.28v-1.64h-2.91v11.72h2.93v-5.94c0-2.36,.99-3.47,2.57-3.47,1.44,0,2.24,.95,2.24,2.77v6.63h2.91v-7.19c0-3.1-1.4-4.83-4.02-4.83Z"/>
    <path class="cls-2" d="M143.61,19.04h3.28v-2.45l-3.26-.02v-3.7h-3.48v1.94c0,.49,.22,.9,.63,1.09l.87,.39v.3h-3.15l-.02,2.45h2.22v5.71c0,2.45,.71,3.56,3.36,3.56h2.95v-2.56h-3.4v-6.7Z"/>
    <path class="cls-1" d="M158.15,15.32c2.37,0,3.64,1.11,3.88,3.49h3.11c-.32-3.95-2.59-6.19-7.06-6.19-5.03,0-7.34,3.56-7.34,7.83s2.14,7.86,6.79,7.86c2.81,0,4.17-1.32,4.77-2.84h.28v2.59h2.53v-8.2h-7.5v2.47h4.51c-.65,2.45-2.57,3.42-4.55,3.28-2.37-.21-3.68-1.96-3.68-5.15s1.56-5.13,4.25-5.13Z"/>
    <path class="cls-1" d="M171.71,16.09c-3.15,0-5.08,1.55-5.08,4.16h2.85c0-1.16,.63-1.92,2.26-1.92,1.54,0,2,.55,2,1.43,0,.72-.32,.99-1.35,1.18l-2.47,.49c-2.73,.51-3.52,1.71-3.5,3.58,.02,2.1,1.46,3.3,3.48,3.3s3.13-.79,3.76-1.92h.3l.06,1.62h2.55l-.14-7.97c-.06-2.47-1.5-3.95-4.73-3.95Zm2.08,6.79c0,1.85-1.11,3.21-2.85,3.28-.87,.05-1.52-.3-1.58-1.32-.08-.99,.49-1.53,1.64-1.8l2.79-.65v.49Z"/>
    <path class="cls-1" d="M182.13,19.04h3.28v-2.45l-3.26-.02v-3.7h-3.48v1.94c0,.49,.22,.9,.63,1.09l.87,.39v.3h-3.15l-.02,2.45h2.22v5.71c0,2.45,.71,3.56,3.36,3.56h2.95v-2.56h-3.4v-6.7Z"/>
    <path class="cls-1" d="M191.66,26.11c-1.66,0-2.67-.9-2.83-3.17h8.11c.04-.23,.06-.53,.06-.88,0-3.28-1.52-6.01-5.42-6.01s-5.6,2.7-5.6,6.12,1.56,6.12,5.6,6.12c3.62,0,5.05-1.89,5.38-3.91h-2.83c-.3,.99-1.07,1.71-2.47,1.71Zm-.04-7.88c1.58,0,2.47,1.04,2.57,2.8h-5.32c.22-1.83,1.17-2.8,2.75-2.8Z"/>
  </g>
  <g>
    <rect class="cls-1" x="6.22" y="33.58" width="12.33" height="4.96"/>
    <path class="cls-1" d="M15.53,14.04l6.9,10.35,2.34-3.79L13.25,3.32c.42-.28,.7-.76,.7-1.3,0-.87-.7-1.56-1.56-1.57-.87,0-1.56,.7-1.56,1.57,0,.54,.28,1.02,.7,1.3L0,20.6l6.19,10.05h12.38l1.37-2.22-7.56-11.34-5.09,7.63-.24-.39-2.25-3.65,4.43-6.65h6.3Z"/>
  </g>
</svg>